<svg width="1996" height="451" viewBox="0 0 1996 451" fill="none" xmlns="http://www.w3.org/2000/svg">
<g clip-path="url(#clip0_39_2)">
<g clip-path="url(#clip1_39_2)">
<g clip-path="url(#clip2_39_2)">
<g clip-path="url(#clip3_39_2)">
<path d="M564.962 384.273V109.714H657.528V384.273H564.962ZM848.542 165.803C874.952 165.803 896.185 173.778 912.24 189.729C928.348 205.679 936.401 229.736 936.401 261.899V384.273H847.758V277.195C847.758 252.616 838.998 240.326 821.479 240.326C811.542 240.326 803.488 243.778 797.317 250.681C791.199 257.636 788.139 268.566 788.139 283.471V384.273H699.496V169.725H783.825V190.905C792.192 182.538 801.867 176.262 812.85 172.078C823.832 167.895 835.73 165.803 848.542 165.803ZM1037.2 384.273V181.492H956.797V109.714H1210.1V181.492H1129.69V384.273H1037.2ZM1231.28 384.273V169.725H1319.92V384.273H1231.28ZM1275.6 152.467C1259.65 152.467 1246.78 148.205 1237 139.68C1227.17 131.208 1222.26 120.435 1222.26 107.361C1222.26 94.2867 1227.17 83.4873 1237 74.9629C1246.78 66.4908 1259.65 62.2548 1275.6 62.2548C1291.81 62.2548 1304.76 66.3078 1314.43 74.4138C1324.11 82.5198 1328.94 92.9792 1328.94 105.792C1328.94 119.389 1324.11 130.555 1314.43 139.288C1304.76 148.074 1291.81 152.467 1275.6 152.467ZM1643.12 165.803C1669 165.803 1689.74 173.778 1705.32 189.729C1720.86 205.679 1728.62 229.736 1728.62 261.899V384.273H1639.98V277.195C1639.98 252.616 1632 240.326 1616.05 240.326C1607.69 240.326 1600.97 243.464 1595.89 249.739C1590.77 256.015 1588.2 265.952 1588.2 279.549V384.273H1499.56V277.195C1499.56 252.616 1491.59 240.326 1475.64 240.326C1467.27 240.326 1460.55 243.464 1455.48 249.739C1450.35 256.015 1447.79 265.952 1447.79 279.549V384.273H1359.14V169.725H1443.47V189.729C1459.42 173.778 1479.69 165.803 1504.27 165.803C1518.65 165.803 1531.59 168.47 1543.1 173.804C1554.6 179.191 1564.02 187.375 1571.34 198.358C1579.97 187.898 1590.43 179.845 1602.72 174.196C1615.01 168.601 1628.47 165.803 1643.12 165.803ZM1995.34 276.803C1995.34 278.111 1994.94 285.04 1994.16 297.591H1845.11C1848.25 305.697 1853.48 311.894 1860.8 316.183C1868.12 320.523 1877.28 322.694 1888.26 322.694C1897.67 322.694 1905.57 321.517 1911.95 319.164C1918.38 316.81 1925.39 312.757 1932.97 307.005L1979.26 353.68C1958.34 376.69 1927.09 388.196 1885.51 388.196C1859.63 388.196 1836.88 383.411 1817.27 373.84C1797.65 364.322 1782.49 351.065 1771.77 334.068C1761.05 317.072 1755.69 297.983 1755.69 276.803C1755.69 255.361 1760.97 236.195 1771.53 219.303C1782.15 202.463 1796.66 189.336 1815.07 179.923C1833.53 170.51 1854.27 165.803 1877.28 165.803C1898.98 165.803 1918.77 170.117 1936.66 178.746C1954.6 187.375 1968.85 200.057 1979.41 216.792C1990.03 233.527 1995.34 253.531 1995.34 276.803ZM1878.06 226.206C1868.91 226.206 1861.33 228.69 1855.31 233.658C1849.3 238.626 1845.38 245.686 1843.54 254.838H1912.58C1910.75 245.948 1906.82 238.94 1900.81 233.815C1894.8 228.742 1887.21 226.206 1878.06 226.206Z" fill="url(#paint0_linear_39_2)"/>
</g>
</g>
</g>
</g>
<g clip-path="url(#clip4_39_2)">
<g clip-path="url(#clip5_39_2)">
<path d="M267.616 0.0975952C267.128 0.0487976 266.64 0 266.152 0C253.172 0 244.193 10.5159 244.193 23.4912C244.193 36.2761 249.17 46.67 268.689 46.9384V47.0116C361.4 48.2803 442.496 127.474 442.496 224.674C442.496 322.654 362.034 403.507 264.053 403.507C170.538 403.507 92.9057 332.946 86.0692 240.24H127.328L63.6516 134.384L0 240.245H39.0381C45.938 357.35 143.87 450.45 263.273 450.45C387.165 450.45 487.976 349.152 487.976 225.24C487.976 102.812 389.502 2.41548 267.616 0.0975952Z" fill="#D41062"/>
<path d="M288.208 109.521C288.208 98.4686 279.332 88.9775 268.304 88.9775H264.005C252.976 88.9775 244.295 98.4686 244.295 109.521V227.631L186.446 285.378C177.906 293.918 178.345 307.776 186.421 316.267C194.522 324.855 208.717 324.855 217.257 316.267L281.181 252.342C281.669 251.805 282.06 251.268 282.548 250.781C286.061 247.145 288.203 242.217 288.203 236.776L288.208 109.521Z" fill="#D41062"/>
</g>
</g>
<defs>
<linearGradient id="paint0_linear_39_2" x1="565" y1="291.5" x2="2989" y2="291" gradientUnits="userSpaceOnUse">
<stop stop-color="#D41062"/>
<stop offset="0.0590277" stop-color="#D91769"/>
<stop offset="0.449653" stop-color="#EF428A"/>
<stop offset="1" stop-color="white" stop-opacity="0"/>
</linearGradient>
<clipPath id="clip0_39_2">
<rect width="1430.45" height="325.941" fill="white" transform="translate(564.923 62.2547)"/>
</clipPath>
<clipPath id="clip1_39_2">
<rect width="1430.45" height="325.941" fill="white" transform="translate(564.923 62.2547)"/>
</clipPath>
<clipPath id="clip2_39_2">
<rect width="1430.45" height="325.941" fill="white" transform="translate(564.923 62.2547)"/>
</clipPath>
<clipPath id="clip3_39_2">
<rect width="1430.45" height="325.941" fill="white" transform="translate(564.923 62.2547)"/>
</clipPath>
<clipPath id="clip4_39_2">
<rect width="487.976" height="450.451" fill="white"/>
</clipPath>
<clipPath id="clip5_39_2">
<rect width="487.976" height="450.451" fill="white"/>
</clipPath>
</defs>
</svg>
