<svg width="42" height="29" viewBox="0 0 42 29" fill="none" xmlns="http://www.w3.org/2000/svg">
<path d="M42 13.7025C42 6.15391 32.5987 0 21.0006 0C9.40371 0 0.00236333 6.15391 0.00236333 13.7025C0.00236333 13.8982 0 14.4369 0 14.5053C0 22.5136 8.21731 29 20.9982 29C33.8583 29 42 22.516 42 14.5065C42 14.2271 42 14.0656 42 13.7025Z" fill="#253E8B"/>
<path d="M41 14.0006C41 21.1799 32.0458 27 21 27C9.95418 27 1 21.1799 1 14.0006C1 6.82006 9.95418 1 21 1C32.0458 1 41 6.82006 41 14.0006Z" fill="#00AEEF"/>
<path d="M14.1256 9.55937C14.1149 9.57897 13.9134 9.78299 14.0438 9.94552C14.3639 10.3432 15.3515 10.5703 16.3498 10.3524C16.9438 10.2233 17.7061 9.6343 18.4448 9.06372C19.2439 8.44589 20.0383 7.82806 20.8362 7.58138C21.6803 7.31973 22.2222 7.43269 22.5802 7.53758C22.9727 7.65054 23.4339 7.90183 24.1701 8.43897C25.5561 9.45218 31.1297 14.1828 32.0924 15C32.869 14.6588 36.3156 13.2168 41 12.2128C40.5933 9.7853 39.0734 7.56294 36.7697 5.74402C33.5591 7.05576 29.6347 7.74045 25.798 5.91807C25.7778 5.91 23.7006 4.95444 21.6531 5.0017C18.6072 5.0697 17.2888 6.35148 15.8933 7.70703L14.1256 9.55937Z" fill="white"/>
<path d="M31.5699 15.3651C31.5058 15.3076 25.1317 9.69049 23.6886 8.59851C22.8524 7.96748 22.3877 7.80562 21.8997 7.74345C21.6458 7.70944 21.2941 7.75753 21.0495 7.82556C20.3775 8.0097 19.4994 8.60085 18.7191 9.22367C17.912 9.87112 17.1503 10.481 16.4445 10.6406C15.5419 10.8446 14.4401 10.603 13.937 10.2617C13.7332 10.1233 13.5899 9.96378 13.5212 9.80192C13.3349 9.36794 13.6773 9.02076 13.7343 8.96328L15.493 7.04674C15.6979 6.84148 15.9029 6.63622 16.1137 6.4333C15.5465 6.50837 15.0213 6.65381 14.5112 6.79691C13.8741 6.97754 13.2615 7.14878 12.6407 7.14878C12.3822 7.14878 10.9951 6.92006 10.7319 6.84734C9.13977 6.40867 7.74219 5.98173 5.65629 5C3.15578 6.87549 1.48333 9.21898 1 11.8006C1.35988 11.8967 1.93871 12.0703 2.18212 12.1243C7.84002 13.391 9.60214 14.6965 9.92242 14.9698C10.2683 14.5816 10.768 14.3364 11.3258 14.3364C11.9513 14.3376 12.5161 14.6531 12.8585 15.1434C13.1823 14.8853 13.6295 14.666 14.2072 14.666C14.4692 14.666 14.7418 14.7153 15.0166 14.8091C15.6549 15.0296 15.9845 15.4577 16.1557 15.8448C16.37 15.7474 16.6332 15.6759 16.943 15.6771C17.2481 15.6771 17.5649 15.7463 17.884 15.8858C18.9275 16.3362 19.0894 17.3684 18.9951 18.146C19.0696 18.1378 19.1442 18.1343 19.2199 18.1343C20.4567 18.1355 21.463 19.1477 21.463 20.3945C21.463 20.7804 21.3652 21.1428 21.194 21.4607C21.5305 21.6519 22.3889 22.0824 23.1424 21.9862C23.7445 21.9099 23.9728 21.7023 24.0543 21.5862C24.1102 21.5065 24.1696 21.4126 24.1149 21.3458L22.5182 19.5594C22.5182 19.5594 22.255 19.3084 22.3423 19.2122C22.432 19.1125 22.595 19.2556 22.7092 19.3518C23.5221 20.0356 24.5144 21.0666 24.5144 21.0666C24.5307 21.0783 24.5971 21.2085 24.9639 21.2754C25.2796 21.3317 25.8386 21.2988 26.2253 20.9786C26.3231 20.8977 26.4209 20.7968 26.5024 20.6924C26.4966 20.6971 26.4908 20.7053 26.485 20.7077C26.8926 20.1811 26.4396 19.6486 26.4396 19.6486L24.5749 17.5408C24.5749 17.5408 24.3094 17.2922 24.3991 17.1925C24.4806 17.1057 24.6518 17.237 24.7694 17.3344C25.3588 17.8317 26.1927 18.6739 26.9928 19.4621C27.1477 19.5782 27.8511 20.0157 28.7805 19.3999C29.3454 19.0269 29.4583 18.5695 29.442 18.2235C29.4036 17.766 29.0484 17.44 29.0484 17.44L26.5024 14.8619C26.5024 14.8619 26.2334 14.6308 26.3289 14.5135C26.4069 14.415 26.5816 14.5569 26.6958 14.6531C27.5064 15.3369 29.7029 17.3649 29.7029 17.3649C29.7344 17.3872 30.4926 17.9314 31.4301 17.3297C31.7655 17.1139 31.9798 16.789 31.9985 16.4101C32.0299 15.7545 31.5699 15.3651 31.5699 15.3651Z" fill="white"/>
<path d="M19.259 18.6341C18.8653 18.6296 18.4344 18.8552 18.3786 18.8227C18.3473 18.8025 18.4019 18.6498 18.439 18.5612C18.4774 18.4736 18.9954 16.9663 17.7317 16.4422C16.7642 16.0415 16.1731 16.4927 15.9698 16.697C15.9164 16.7508 15.8931 16.7464 15.8862 16.6779C15.8676 16.4063 15.741 15.6723 14.9071 15.4254C13.7143 15.073 12.9466 15.8777 12.7515 16.1684C12.6643 15.5107 12.0906 15.0011 11.3856 15C10.6202 15 10 15.5982 10 16.3378C9.99884 17.0763 10.619 17.6756 11.3844 17.6756C11.7561 17.6768 12.0929 17.5331 12.3415 17.303C12.3496 17.3098 12.3531 17.3221 12.3484 17.3479C12.2904 17.6779 12.1835 18.881 13.4866 19.3715C14.0093 19.5668 14.4541 19.4209 14.8223 19.1717C14.9315 19.0965 14.9501 19.1279 14.9338 19.2278C14.8873 19.5376 14.9466 20.1998 15.9082 20.5758C16.6388 20.8631 17.072 20.569 17.3554 20.3165C17.4785 20.2076 17.5122 20.2245 17.518 20.3928C17.5528 21.2884 18.3229 21.9989 19.2567 22C20.2195 22 21 21.248 21 20.3187C21.0012 19.3883 20.2218 18.6442 19.259 18.6341Z" fill="white"/>
<path d="M19.4493 22.2404C18.5693 22.2392 17.8535 21.5461 17.8206 20.6643C17.8195 20.5884 17.8113 20.3866 17.6437 20.3866C17.5734 20.3866 17.5137 20.4293 17.4445 20.4922C17.2512 20.6738 17.0052 20.859 16.6454 20.859C16.4814 20.859 16.3045 20.8198 16.1182 20.7426C15.1879 20.3617 15.175 19.7148 15.2125 19.4549C15.223 19.3849 15.2265 19.3125 15.1797 19.2567L15.1223 19.2057H15.0649C15.018 19.2057 14.9688 19.2247 14.9032 19.2722C14.6337 19.4632 14.3759 19.5558 14.1134 19.5558C13.9693 19.5558 13.8217 19.5261 13.6729 19.468C12.4497 18.9861 12.5469 17.8159 12.6067 17.4646C12.6149 17.3922 12.5973 17.3376 12.5528 17.3008L12.4661 17.2284L12.3852 17.3068C12.1474 17.5394 11.8345 17.6676 11.5076 17.6676C10.8058 17.6664 10.2352 17.0896 10.2364 16.3798C10.2364 15.6689 10.8081 15.0933 11.5088 15.0933C12.1427 15.0933 12.6817 15.5764 12.7625 16.2173L12.8059 16.5626L12.9933 16.2707C13.0144 16.2362 13.5276 15.4494 14.472 15.4506C14.6512 15.4506 14.8364 15.479 15.0238 15.5384C15.7761 15.771 15.9038 16.4617 15.9237 16.7501C15.9366 16.9175 16.0549 16.9258 16.0784 16.9258C16.1428 16.9258 16.1908 16.8843 16.2248 16.8475C16.3666 16.6979 16.6759 16.4487 17.1598 16.4487C17.3813 16.4487 17.6179 16.5021 17.8605 16.6077C19.0568 17.1276 18.5143 18.6669 18.5084 18.6835C18.4053 18.9387 18.4006 19.0514 18.4979 19.1167L18.5447 19.1392H18.5799C18.6338 19.1392 18.7006 19.1155 18.8107 19.0775C18.9736 19.0205 19.2196 18.9351 19.4493 18.9351H19.4505C20.3503 18.9458 21.0826 19.6875 21.0826 20.5895C21.0814 21.4998 20.3491 22.2404 19.4493 22.2404ZM32.1222 14.8203C30.1467 13.0745 25.5819 9.05472 24.3457 8.11356C23.6392 7.57593 23.1576 7.29109 22.7347 7.16409C22.5449 7.10594 22.2812 7.03948 21.9426 7.03948C21.6286 7.03948 21.2912 7.09645 20.9385 7.21038C20.1394 7.46674 19.3438 8.10763 18.5729 8.72715L18.533 8.7592C17.816 9.33718 17.0755 9.93416 16.5142 10.0612C16.2693 10.1169 16.0174 10.1454 15.7667 10.1454C15.1375 10.1454 14.5739 9.96146 14.3618 9.68849C14.3267 9.6422 14.349 9.5698 14.431 9.46418L14.4427 9.44993L16.1803 7.55338C17.5406 6.17428 18.8259 4.87351 21.7856 4.80467C21.8337 4.80349 21.884 4.8023 21.9332 4.8023C23.7751 4.80349 25.6158 5.63902 25.8221 5.73515C27.5491 6.58848 29.3324 7.02167 31.1239 7.02286C32.9916 7.02405 34.919 6.55525 36.9448 5.61053C36.7187 5.41826 36.4832 5.23075 36.2406 5.04679C34.4609 5.82772 32.7654 6.22294 31.1298 6.22294C29.4578 6.22056 27.7893 5.81467 26.1677 5.01355C26.0822 4.97202 24.0493 4.00119 21.9332 4C21.8782 4 21.8219 4.00119 21.7669 4.00237C19.2817 4.06053 17.8816 4.9554 16.9395 5.73871C16.0245 5.76126 15.2336 5.98438 14.5317 6.18377C13.9037 6.35942 13.3624 6.51252 12.834 6.51252C12.616 6.51252 12.2247 6.49235 12.1895 6.49116C11.5826 6.47217 8.52102 5.7126 6.08627 4.77856C5.83787 4.95659 5.59885 5.14055 5.36568 5.32807C7.9094 6.38435 11.005 7.20089 11.9822 7.26498C12.254 7.28396 12.5434 7.31482 12.8328 7.31482C13.4796 7.31482 14.124 7.13205 14.7485 6.95521C15.1164 6.84958 15.523 6.73565 15.9518 6.65257C15.837 6.76651 15.7233 6.88163 15.6085 6.99675L13.844 8.93129C13.7045 9.07371 13.4022 9.45349 13.6014 9.91992C13.6811 10.1086 13.8416 10.289 14.0666 10.4421C14.486 10.7293 15.2394 10.9228 15.9401 10.924C16.2049 10.924 16.4568 10.8967 16.6876 10.8445C17.427 10.6759 18.2038 10.0493 19.0263 9.38703C19.6813 8.86008 20.6116 8.1907 21.3251 7.99369C21.5243 7.9391 21.7692 7.90468 21.9649 7.90468C22.0235 7.90586 22.0797 7.90705 22.1313 7.91536C22.6023 7.9747 23.0569 8.1373 23.87 8.75564C25.3194 9.8582 31.732 15.5408 31.7953 15.5977C31.7988 15.6013 32.2077 15.9573 32.1796 16.5519C32.1644 16.8831 31.9827 17.1774 31.6676 17.3815C31.3934 17.5572 31.111 17.6462 30.8263 17.6462C30.3975 17.6462 30.1022 17.4421 30.0823 17.429C30.0588 17.4088 27.8619 15.3687 27.0535 14.6827C26.9246 14.5747 26.7992 14.4774 26.6727 14.4774C26.6059 14.4774 26.5462 14.5058 26.5051 14.5581C26.3786 14.7171 26.5204 14.9367 26.6891 15.0815L29.2551 17.6937C29.2586 17.6972 29.5749 17.9975 29.6089 18.3986C29.63 18.8318 29.425 19.1938 28.9996 19.4763C28.6974 19.6781 28.3904 19.7813 28.0904 19.7813C27.6967 19.7813 27.4191 19.5985 27.3581 19.5558L26.9902 19.1879C26.3177 18.5173 25.6229 17.8242 25.1144 17.3946C24.9902 17.2901 24.8578 17.194 24.7312 17.194C24.6691 17.194 24.6129 17.2166 24.5695 17.2628C24.5121 17.3281 24.4711 17.4456 24.6164 17.6403C24.675 17.7198 24.7453 17.7862 24.7453 17.7862L26.6188 19.9178C26.634 19.9368 27.0043 20.383 26.661 20.8269L26.5942 20.9112C26.5391 20.9741 26.4782 21.0322 26.4208 21.0821C26.1009 21.3479 25.6744 21.3764 25.5057 21.3764C25.4155 21.3764 25.3276 21.3681 25.2526 21.3539C25.0675 21.3206 24.9433 21.2684 24.8824 21.196L24.8601 21.1723C24.7582 21.0655 23.8138 20.0887 23.0323 19.4288C22.9303 19.341 22.8015 19.2306 22.6691 19.2306C22.6034 19.2306 22.5449 19.2567 22.4992 19.3078C22.3445 19.4787 22.5765 19.735 22.6749 19.83L24.2731 21.6138C24.2707 21.6292 24.2508 21.666 24.2122 21.723C24.1548 21.8025 23.9614 21.9995 23.3814 22.0731C23.3123 22.0826 23.2408 22.0861 23.1694 22.0861C22.5718 22.0861 21.9344 21.7918 21.6063 21.6161C21.7563 21.2957 21.8337 20.9432 21.8337 20.5907C21.8337 19.2579 20.7663 18.1743 19.4516 18.1743C19.4235 18.1743 19.3942 18.1743 19.3661 18.1755C19.4083 17.5679 19.3239 16.4166 18.1569 15.9099C17.8206 15.7627 17.4855 15.6879 17.161 15.6879C16.9056 15.6879 16.6607 15.7318 16.431 15.8208C16.1885 15.3449 15.7878 14.9984 15.264 14.818C14.9746 14.7171 14.6864 14.6649 14.4087 14.6649C13.9225 14.6649 13.4761 14.8097 13.0765 15.0969C12.6945 14.6162 12.1169 14.3302 11.5088 14.3302C10.9769 14.3302 10.4648 14.5462 10.0864 14.9272C9.58842 14.5426 7.61648 13.2727 2.33689 12.0586C2.08146 12.0004 1.49562 11.8295 1.13591 11.7239C1.07616 12.0123 1.03046 12.3055 1 12.601C1 12.601 1.97367 12.8372 2.16582 12.8811C7.55907 14.094 9.34002 15.3556 9.64232 15.5942C9.53921 15.8422 9.48648 16.1092 9.48648 16.3798C9.48531 17.5073 10.3922 18.4271 11.5065 18.4283C11.6318 18.4283 11.756 18.4165 11.8767 18.3939C12.0454 19.2247 12.5821 19.8549 13.4011 20.1777C13.6413 20.2703 13.8838 20.3189 14.1216 20.3189C14.2751 20.3189 14.431 20.3 14.5821 20.2608C14.7333 20.6501 15.0742 21.1355 15.8358 21.4488C16.103 21.558 16.3701 21.615 16.629 21.615C16.8411 21.615 17.0485 21.577 17.2465 21.5034C17.6109 22.4042 18.4803 23 19.4481 23C20.0902 23.0012 20.7065 22.7365 21.1564 22.2677C21.5407 22.4849 22.3527 22.8766 23.1729 22.8778C23.2795 22.8778 23.3791 22.8694 23.4787 22.8576C24.2942 22.7543 24.6726 22.4303 24.8472 22.1799C24.8788 22.136 24.907 22.0897 24.9316 22.041C25.1237 22.098 25.3346 22.1431 25.5772 22.1443C26.0224 22.1443 26.4501 21.99 26.8813 21.6707C27.3054 21.3622 27.6065 20.9171 27.6499 20.5385C27.651 20.5326 27.6522 20.5278 27.6534 20.5219C27.7952 20.5516 27.9428 20.567 28.0893 20.567C28.5474 20.567 28.9973 20.4222 29.4285 20.1362C30.2592 19.5855 30.4033 18.8651 30.3904 18.3927C30.5346 18.4236 30.6834 18.439 30.831 18.439C31.261 18.439 31.684 18.3084 32.0859 18.0485C32.6014 17.715 32.9107 17.2047 32.9576 16.6101C32.9904 16.2066 32.892 15.7995 32.6811 15.4494C34.073 14.8417 37.2541 13.6667 41 12.811C40.9777 12.5167 40.9356 12.2259 40.884 11.9363C36.3519 12.9558 32.9693 14.4382 32.1222 14.8203Z" fill="#253E8B"/>
</svg>
