<svg width="1999" height="338" viewBox="0 0 1999 338" fill="none" xmlns="http://www.w3.org/2000/svg">
<g clip-path="url(#clip0_43_3)">
<g clip-path="url(#clip1_43_3)">
<g clip-path="url(#clip2_43_3)">
<g clip-path="url(#clip3_43_3)">
<g clip-path="url(#clip4_43_3)">
<g clip-path="url(#clip5_43_3)">
<g clip-path="url(#clip6_43_3)">
<path d="M527.647 292.244C508.871 292.244 490.592 290.129 472.809 285.899C454.984 281.712 440.352 276.058 428.914 268.936L453.516 213.257C464.307 219.515 476.392 224.522 489.772 228.277C503.152 232.076 515.993 233.975 528.294 233.975C538.869 233.975 546.422 232.939 550.954 230.867C555.486 228.838 557.753 225.774 557.753 221.673C557.753 216.926 554.796 213.365 548.883 210.991C542.926 208.617 533.15 206.027 519.554 203.222C502.073 199.553 487.506 195.604 475.852 191.374C464.199 187.187 454.056 180.281 445.423 170.656C436.791 161.074 432.474 148.082 432.474 131.68C432.474 117.437 436.467 104.488 444.452 92.8346C452.437 81.1808 464.371 72.0089 480.255 65.3187C496.095 58.6286 515.346 55.2836 538.006 55.2836C553.544 55.2836 568.824 56.9669 583.844 60.3335C598.821 63.657 612.029 68.5559 623.467 75.0302L600.483 130.386C578.255 119.163 557.213 113.552 537.358 113.552C517.72 113.552 507.9 118.3 507.9 127.796C507.9 132.328 510.814 135.716 516.641 137.961C522.467 140.248 532.071 142.687 545.451 145.277C562.716 148.514 577.283 152.226 589.153 156.412C601.023 160.642 611.338 167.505 620.1 177.001C628.819 186.496 633.178 199.445 633.178 215.847C633.178 230.09 629.186 242.974 621.201 254.498C613.216 266.066 601.303 275.238 585.463 282.014C569.579 288.834 550.307 292.244 527.647 292.244ZM776.584 106.754C798.381 106.754 815.905 113.337 829.156 126.501C842.45 139.665 849.097 159.52 849.097 186.065V287.064H775.937V198.69C775.937 178.403 768.707 168.26 754.248 168.26C746.047 168.26 739.4 171.109 734.307 176.806C729.257 182.547 726.732 191.568 726.732 203.869V287.064H653.572V46.8669H726.732V124.235C740.328 112.581 756.946 106.754 776.584 106.754ZM974.375 290.301C954.736 290.301 937.083 286.352 921.415 278.453C905.79 270.598 893.554 259.699 884.706 245.758C875.857 231.86 871.433 216.062 871.433 198.366C871.433 180.669 875.857 164.851 884.706 150.909C893.554 137.011 905.79 126.177 921.415 118.408C937.083 110.639 954.736 106.754 974.375 106.754C994.229 106.754 1011.97 110.639 1027.59 118.408C1043.26 126.177 1055.45 137.011 1064.17 150.909C1072.94 164.851 1077.32 180.669 1077.32 198.366C1077.32 216.062 1072.94 231.86 1064.17 245.758C1055.45 259.699 1043.26 270.598 1027.59 278.453C1011.97 286.352 994.229 290.301 974.375 290.301ZM974.375 233.327C982.791 233.327 989.697 230.241 995.093 224.069C1000.49 217.94 1003.19 209.372 1003.19 198.366C1003.19 187.36 1000.49 178.835 995.093 172.792C989.697 166.75 982.791 163.728 974.375 163.728C965.958 163.728 959.052 166.75 953.657 172.792C948.262 178.835 945.564 187.36 945.564 198.366C945.564 209.372 948.262 217.94 953.657 224.069C959.052 230.241 965.958 233.327 974.375 233.327ZM1169.83 129.091C1182.78 114.2 1201.88 106.754 1227.13 106.754V171.498C1221.31 170.634 1215.91 170.203 1210.95 170.203C1185.91 170.203 1173.4 182.935 1173.4 208.401V287.064H1100.24V109.992H1169.83V129.091ZM1360.83 230.09L1378.31 280.913C1367.3 287.172 1352.3 290.301 1333.31 290.301C1308.49 290.301 1289.39 284.323 1276.01 272.367C1262.63 260.368 1255.94 242.391 1255.94 218.436V173.116H1231.66V119.703H1255.94V70.1745H1329.1V119.703H1365.36V173.116H1329.1V217.789C1329.1 223.184 1330.51 227.392 1333.31 230.414C1336.12 233.435 1339.79 234.946 1344.32 234.946C1350.58 234.946 1356.08 233.327 1360.83 230.09ZM1516.21 292.244C1492.26 292.244 1470.67 287.215 1451.47 277.158C1432.26 267.145 1417.2 253.117 1406.28 235.075C1395.4 217.077 1389.96 196.639 1389.96 173.764C1389.96 150.888 1395.4 130.429 1406.28 112.387C1417.2 94.3884 1432.26 80.3607 1451.47 70.304C1470.67 60.2904 1492.26 55.2836 1516.21 55.2836C1538.22 55.2836 1557.86 59.1681 1575.13 66.9373C1592.39 74.7065 1606.63 85.9286 1617.86 100.604L1569.62 143.658C1555.6 125.962 1539.09 117.113 1520.1 117.113C1504.13 117.113 1491.28 122.228 1481.57 132.457C1471.86 142.73 1467.01 156.499 1467.01 173.764C1467.01 191.028 1471.86 204.776 1481.57 215.005C1491.28 225.278 1504.13 230.414 1520.1 230.414C1539.09 230.414 1555.6 221.566 1569.62 203.869L1617.86 246.923C1606.63 261.598 1592.39 272.821 1575.13 280.59C1557.86 288.359 1538.22 292.244 1516.21 292.244ZM1757.96 109.992H1831.12V287.064H1761.52V270.231C1755.05 276.921 1747.49 281.928 1738.86 285.251C1730.23 288.618 1721.06 290.301 1711.35 290.301C1688.9 290.301 1670.88 283.438 1657.29 269.713C1643.69 256.031 1636.89 235.377 1636.89 207.754V109.992H1710.05V195.129C1710.05 207.214 1711.99 215.847 1715.88 221.026C1719.76 226.206 1725.48 228.795 1733.04 228.795C1740.16 228.795 1746.09 225.925 1750.84 220.184C1755.59 214.487 1757.96 205.488 1757.96 193.186V109.992ZM1976.47 230.09L1993.95 280.913C1982.94 287.172 1967.94 290.301 1948.95 290.301C1924.14 290.301 1905.04 284.323 1891.66 272.367C1878.28 260.368 1871.59 242.391 1871.59 218.436V173.116H1847.31V119.703H1871.59V70.1745H1944.75V119.703H1981V173.116H1944.75V217.789C1944.75 223.184 1946.15 227.392 1948.95 230.414C1951.76 233.435 1955.43 234.946 1959.96 234.946C1966.22 234.946 1971.72 233.327 1976.47 230.09Z" fill="url(#paint0_linear_43_3)"/>
</g>
</g>
</g>
</g>
<g clip-path="url(#clip7_43_3)">
<g clip-path="url(#clip8_43_3)">
<path d="M202.601 0.0734721C202.233 0.036736 201.866 0 201.499 0C191.727 0 184.968 7.91662 184.968 17.6847C184.968 27.3096 188.715 35.1344 203.409 35.3364V35.3915C273.204 36.3466 334.255 95.9656 334.255 169.14C334.255 242.902 273.681 303.77 199.919 303.77C129.518 303.77 71.0748 250.65 65.928 180.859H96.9884L49.0515 101.167L1.133 180.863H30.5218C35.7163 269.022 109.442 339.11 199.331 339.11C292.6 339.11 368.493 262.85 368.493 169.566C368.493 77.3992 294.36 1.81843 202.601 0.0734721Z" fill="#D91769"/>
<path d="M218.103 82.4504C218.103 74.1297 211.421 66.9845 203.119 66.9845H199.882C191.58 66.9845 185.045 74.1297 185.045 82.4504V171.366L141.494 214.84C135.065 221.269 135.396 231.702 141.476 238.094C147.574 244.559 158.26 244.559 164.689 238.094L212.813 189.969C213.181 189.565 213.475 189.161 213.842 188.794C216.487 186.057 218.1 182.347 218.1 178.251L218.103 82.4504Z" fill="#D91769"/>
</g>
</g>
</g>
</g>
</g>
<defs>
<linearGradient id="paint0_linear_43_3" x1="1094" y1="-274" x2="1130" y2="1679.5" gradientUnits="userSpaceOnUse">
<stop offset="0.12634" stop-color="#D41062"/>
<stop offset="0.480903" stop-color="#E36398" stop-opacity="0.653051"/>
<stop offset="1" stop-color="white" stop-opacity="0"/>
</linearGradient>
<clipPath id="clip0_43_3">
<rect width="2000" height="338" fill="white" transform="translate(-1.2121 0.555237)"/>
</clipPath>
<clipPath id="clip1_43_3">
<rect width="1995.31" height="339.11" fill="white" transform="translate(1.133)"/>
</clipPath>
<clipPath id="clip2_43_3">
<rect width="1995.31" height="339.11" fill="white" transform="translate(1.133)"/>
</clipPath>
<clipPath id="clip3_43_3">
<rect width="1570.02" height="245.377" fill="white" transform="translate(426.421 46.8669)"/>
</clipPath>
<clipPath id="clip4_43_3">
<rect width="1570.02" height="245.377" fill="white" transform="translate(426.421 46.8669)"/>
</clipPath>
<clipPath id="clip5_43_3">
<rect width="1570.02" height="245.377" fill="white" transform="translate(426.421 46.8669)"/>
</clipPath>
<clipPath id="clip6_43_3">
<rect width="1570.02" height="245.377" fill="white" transform="translate(426.421 46.8669)"/>
</clipPath>
<clipPath id="clip7_43_3">
<rect width="367.361" height="339.11" fill="white" transform="translate(1.133)"/>
</clipPath>
<clipPath id="clip8_43_3">
<rect width="367.361" height="339.11" fill="white" transform="translate(1.133)"/>
</clipPath>
</defs>
</svg>
