<svg xmlns="http://www.w3.org/2000/svg" version="1.1" xmlns:xlink="http://www.w3.org/1999/xlink" xmlns:svgjs="http://svgjs.dev/svgjs" width="128" height="128" viewBox="0 0 128 128"><g transform="matrix(0.8046875,0,0,0.8046875,12.760752631578946,16.598165123819243)"><svg viewBox="0 0 95 88" data-background-color="#0b1044" preserveAspectRatio="xMidYMid meet" height="118" width="128" xmlns="http://www.w3.org/2000/svg" xmlns:xlink="http://www.w3.org/1999/xlink"><g id="tight-bounds" transform="matrix(1,0,0,1,-0.24049999999999727,-0.06925554999999406)"><svg viewBox="0 0 95.481 88.1385111" height="88.1385111" width="95.481"><g><svg viewBox="0 0 95.481 88.1385111" height="88.1385111" width="95.481"><g><svg viewBox="0 0 95.481 88.1385111" height="88.1385111" width="95.481"><g id="textblocktransform"><svg viewBox="0 0 95.481 88.1385111" height="88.1385111" width="95.481" id="textblock"><g><svg viewBox="0 0 95.481 88.1385111" height="88.1385111" width="95.481"><g><svg viewBox="0 0 95.481 88.1385111" height="88.1385111" width="95.481"><g><svg version="1.1" xmlns="http://www.w3.org/2000/svg" xmlns:xlink="http://www.w3.org/1999/xlink" x="0" y="0" viewBox="0 0 100 92.31" enable-background="new 0 0 100 92.31" xml:space="preserve" width="95.481" height="88.1385111" class="icon-icon-0" data-fill-palette-color="accent" id="icon-0"><path fill="#ffffff" d="M54.842 0.02c-0.1-0.01-0.2-0.02-0.3-0.02-2.66 0-4.5 2.155-4.5 4.814 0 2.62 1.02 4.75 5.02 4.805v0.015c18.999 0.26 35.618 16.489 35.618 36.408 0 20.079-16.489 36.648-36.568 36.648-19.164 0-35.073-14.46-36.474-33.458h8.455L13.044 27.539 0 49.233h8C9.414 73.231 29.483 92.31 53.952 92.31 79.341 92.31 100 71.551 100 46.158 100 21.069 79.82 0.495 54.842 0.02z" data-fill-palette-color="accent"></path><path fill="#ffffff" d="M59.062 22.444c0-2.265-1.819-4.21-4.079-4.21h-0.881c-2.26 0-4.039 1.945-4.039 4.21v24.204L38.208 58.482c-1.75 1.75-1.66 4.59-0.005 6.33 1.66 1.76 4.569 1.76 6.319 0l13.1-13.1c0.1-0.11 0.18-0.22 0.28-0.32 0.72-0.745 1.159-1.755 1.159-2.87V22.444z" data-fill-palette-color="accent"></path></svg></g></svg></g></svg></g></svg></g></svg></g></svg></g><defs></defs></svg><rect width="95.481" height="88.1385111" fill="none" stroke="none" visibility="hidden"></rect></g></svg></g></svg>